<?xml version="1.0" standalone="no"?>
<!DOCTYPE svg PUBLIC "-//W3C//DTD SVG 20010904//EN"
 "http://www.w3.org/TR/2001/REC-SVG-20010904/DTD/svg10.dtd">
<svg version="1.0" xmlns="http://www.w3.org/2000/svg"
 width="260.000000pt" height="260.000000pt" viewBox="0 0 260.000000 260.000000"
 preserveAspectRatio="xMidYMid meet">
<metadata>
Created by potrace 1.14, written by Peter Selinger 2001-2017
</metadata>
<g transform="translate(0.000000,260.000000) scale(0.100000,-0.100000)"
fill="#000000" stroke="none">
<path d="M383 2586 c-181 -44 -334 -202 -372 -384 -15 -74 -15 -1730 0 -1804
39 -187 200 -348 387 -387 74 -15 1730 -15 1804 0 187 39 348 200 387 387 15
74 15 1730 0 1804 -39 187 -200 348 -387 387 -80 17 -1749 14 -1819 -3z m1605
-611 c127 -30 213 -99 252 -201 18 -49 21 -74 18 -149 -7 -144 -47 -204 -249
-371 -96 -80 -121 -120 -127 -206 l-4 -58 -96 0 -95 0 6 78 c11 150 19 161
255 382 74 69 81 79 91 130 15 75 2 126 -43 167 -77 71 -217 71 -394 2 -40
-16 -76 -29 -81 -29 -8 0 -81 144 -81 160 0 19 205 90 295 103 70 10 195 6
253 -8z m-675 -395 c-4 -4 -160 -78 -345 -165 -186 -87 -338 -161 -338 -164 0
-3 154 -69 343 -147 l342 -141 3 -96 3 -96 -148 65 c-81 36 -293 129 -470 207
l-323 141 0 58 0 58 468 234 467 234 3 -91 c1 -50 -1 -93 -5 -97z m552 -774
c93 -39 93 -216 -1 -261 -69 -32 -160 -10 -190 47 -24 45 -24 136 -1 172 34
52 122 71 192 42z"/>
</g>
</svg>
